<?xml version="1.0" encoding="UTF-8"?>
<svg xmlns="http://www.w3.org/2000/svg" viewBox="0 0 2891.34 1247.24" height="1247.24" width="2891.34" >
  <defs>
    <style>
      .cls-1 {
        stroke: #4f051f;
      }

      .cls-1, .cls-2, .cls-3, .cls-4, .cls-5, .cls-6, .cls-7, .cls-8, .cls-9, .cls-10, .cls-11, .cls-12, .cls-13, .cls-14, .cls-15, .cls-16, .cls-17, .cls-18, .cls-19, .cls-20, .cls-21, .cls-22 {
        stroke-linejoin: round;
      }

      .cls-1, .cls-2, .cls-3, .cls-4, .cls-5, .cls-6, .cls-7, .cls-8, .cls-9, .cls-10, .cls-11, .cls-12, .cls-13, .cls-14, .cls-15, .cls-16, .cls-19, .cls-20, .cls-21, .cls-22 {
        stroke-linecap: round;
      }

      .cls-1, .cls-5, .cls-6, .cls-7, .cls-8, .cls-9, .cls-10, .cls-11, .cls-12, .cls-13, .cls-14, .cls-23, .cls-15, .cls-16, .cls-17, .cls-18, .cls-20, .cls-21, .cls-22 {
        fill: none;
      }

      .cls-1, .cls-19, .cls-20, .cls-22 {
        stroke-width: 3px;
      }

      .cls-24 {
        stroke: #e3000f;
      }

      .cls-24, .cls-2, .cls-3, .cls-4, .cls-7, .cls-8, .cls-9, .cls-10, .cls-11, .cls-12, .cls-13, .cls-14, .cls-23, .cls-15, .cls-16, .cls-17, .cls-18 {
        stroke-width: 4px;
      }

      .cls-24, .cls-23 {
        stroke-miterlimit: 10;
      }

      .cls-24, .cls-25 {
        fill: #fff;
      }

      .cls-26 {
        fill: #171717;
      }

      .cls-26, .cls-27, .cls-28, .cls-29, .cls-30, .cls-31, .cls-32, .cls-33, .cls-34 {
        isolation: isolate;
      }

      .cls-26, .cls-27, .cls-28, .cls-29, .cls-30, .cls-31, .cls-32, .cls-33, .cls-34, .cls-35, .cls-36, .cls-37, .cls-38, .cls-39, .cls-40, .cls-41, .cls-42, .cls-43, .cls-44, .cls-45, .cls-46, .cls-47, .cls-48, .cls-49, .cls-50, .cls-25, .cls-51, .cls-52 {
        stroke-width: 0px;
      }

      .cls-26, .cls-27, .cls-28, .cls-33 {
        opacity: .2;
      }

      .cls-27, .cls-29, .cls-46 {
        fill: #c9c4c2;
      }

      .cls-28 {
        fill: #7b7b7b;
      }

      .cls-2, .cls-3, .cls-4, .cls-32, .cls-36, .cls-52 {
        fill: #006bb7;
      }

      .cls-2, .cls-5, .cls-12, .cls-22 {
        stroke: #000;
      }

      .cls-3, .cls-10, .cls-23 {
        stroke: #19285f;
      }

      .cls-4 {
        stroke: #1a1515;
      }

      .cls-5, .cls-6 {
        stroke-width: 2px;
      }

      .cls-30 {
        fill: #222020;
      }

      .cls-30, .cls-31, .cls-32, .cls-34 {
        opacity: .3;
      }

      .cls-31 {
        fill: #222120;
      }

      .cls-6 {
        stroke: #222120;
      }

      .cls-7, .cls-19, .cls-20 {
        stroke: #fff;
      }

      .cls-8, .cls-17 {
        stroke: #202020;
      }

      .cls-9 {
        stroke: #191416;
      }

      .cls-11 {
        stroke: #8d8d8d;
      }

      .cls-13 {
        stroke: #222020;
      }

      .cls-14 {
        stroke: #1a1a1a;
      }

      .cls-15 {
        stroke: #353535;
      }

      .cls-16 {
        stroke: #282625;
      }

      .cls-53 {
        opacity: .2;
      }

      .cls-18 {
        stroke: #ededed;
      }

      .cls-19, .cls-42 {
        fill: #58595b;
      }

      .cls-36 {
        opacity: .3;
      }

      .cls-37 {
        fill: #f39d73;
      }

      .cls-38 {
        fill: #f9b83e;
      }

      .cls-39 {
        fill: #4f051f;
      }

      .cls-40 {
        fill: #9c2b42;
      }

      .cls-41 {
        fill: #3c3c3c;
      }

      .cls-43 {
        fill: #1a1a1a;
      }

      .cls-44 {
        fill: #19285f;
      }

      .cls-45 {
        fill: #231f20;
      }

      .cls-47 {
        fill: #e21e26;
      }

      .cls-48 {
        fill: #e3000f;
      }

      .cls-49 {
        fill: #e08253;
      }

      .cls-50 {
        fill: #ff8c9e;
      }

      .cls-51 {
        fill: #f0f0f0;
      }

      .cls-21 {
        stroke: #006bb7;
        stroke-width: 6px;
      }
    </style>
  </defs>
  <g id="background">
    <rect class="cls-36" width="2891" height="1247"/>
    <path class="cls-25" d="M2084.54,399.97h345.06c24.75,0,44.99,20.09,44.99,44.99v345.06c0,24.75-20.09,44.99-44.99,44.99h-345.06c-24.75,0-44.99-20.09-44.99-44.99v-345.06c0-24.9,20.09-44.99,44.99-44.99Z"/>
    <g class="cls-53">
      <path class="cls-52" d="M1633.56,547.06c30.4,147.58,33.37,304.78-53.41,382.67-86.01,77.12-262.52,74.15-401.94,148.31-137.93,74.15-241.01,224.7-381.92,276.62-140.16,52.66-319.62,5.2-451.62-104.56-131.27-110.51-215.81-282.55-252.89-469.44-37.82-186.13-28.19-385.63,88.99-480.55,116.43-95.67,340.39-88.25,504.28-114.2,163.89-25.97,268.45-86.03,393.05-102.34,124.58-16.33,268.45,10.38,367.83,93.43,100.85,83.07,157.97,221.74,187.62,370.07Z"/>
    </g>
  </g>
  <g id="icone">
    <g>
      <path class="cls-46" d="M1409.49,613.17l55.28,17.29v27.29s18.74,0,18.74,0l96.76-97.38-96.76-86.32h-18.74s0,27.29,0,27.29l-55.28,17.29v94.54Z"/>
      <path class="cls-34" d="M1443.11,623.69l21.66,6.77v-129.12s-6.33,1.96-6.33,1.96l-15.34,120.4Z"/>
      <path class="cls-42" d="M1520.95,704.13h95.43s0-65.1,0-65.1h-95.43s0,65.1,0,65.1Z"/>
      <path class="cls-46" d="M1546.83,704.13h95.41s0-65.1,0-65.1h-95.41s0,65.1,0,65.1Z"/>
      <path class="cls-46" d="M1559.47,929.62l-58.14,194.12h-93.65v-432.1h93.65s58.14,237.98,58.14,237.98Z"/>
      <path class="cls-25" d="M1501.33,1123.74h222.05s0-432.1,0-432.1h-222.05s0,432.1,0,432.1Z"/>
      <path class="cls-25" d="M1483.51,657.75h222.05s0-183.7,0-183.7h-222.05s0,183.7,0,183.7Z"/>
      <path class="cls-44" d="M1510.26,631h168.55s0-130.2,0-130.2h-168.55s0,130.2,0,130.2Z"/>
      <path class="cls-41" d="M1514.72,721.07h76.69s0-16.05,0-16.05h-76.69s0,16.05,0,16.05Z"/>
      <path class="cls-12" d="M1464.77,630.46v-129.12"/>
      <path class="cls-7" d="M1594.08,526.66h60.65"/>
      <path class="cls-7" d="M1626.19,544.49h28.54"/>
      <path class="cls-7" d="M1610.14,571.26h44.6"/>
    </g>
  </g>
  <g id="text">
    <path class="cls-48" d="M1255.17,279.63c28.77,0,52.11-23.32,52.11-52.11s-23.34-52.11-52.11-52.11-52.11,23.34-52.11,52.11,23.32,52.11,52.11,52.11Z"/>
    <path class="cls-12" d="M1238.1,225.63l13.9,13.92,20.22-24.02"/>
  </g>
  <g id="commun_illustration_for_session" data-name="commun illustration for session">
    <g>
      <path class="cls-12" d="M2511.38,922.56c-15.7,0-26.19,12.12-23.5,26.98l.8,4.27c.21,1.03,1.2,1.89,2.4,1.89h52.96c.9,0,1.7-.65,1.7-1.51v-.38l-.8-4.27c-2.79-14.96-17.79-26.98-33.57-26.98Z"/>
      <path class="cls-44" d="M2380.86,1109.12h181.98c3.9,0,7.2-2.65,7.79-6.25l25.79-138.46c1.4-7.68-4.8-14.77-13.09-14.77h-154.1c-10.89,0-20.19,7.39-22.09,17.51l-26.29,141.97Z"/>
      <path class="cls-52" d="M2644.89,1109.12h-188.68l-7.79-42.14-21.57-115.84c-.21-.85.5-1.51,1.4-1.51h168.19c10.89,0,20.19,7.39,22.09,17.51l26.38,141.97Z"/>
      <path class="cls-33" d="M2640.6,1086.02l-4.7-25.29h-188.67l1.19,6.26,192.18,19.03Z"/>
      <path class="cls-12" d="M2420.04,1008.74v98.49"/>
      <path class="cls-12" d="M2633.89,1060.83h-184.87"/>
      <path class="cls-10" d="M2530.26,989.32l6.5,35.05"/>
      <path class="cls-10" d="M2551.95,1006.85h-36.97"/>
    </g>
    <g>
      <path class="cls-52" d="M372.36,416.6h61.79c7.97,0,14.47,6.16,14.47,13.71v147.35c0,7.56-6.5,13.71-14.47,13.71h-61.79c-7.97,0-14.47-6.16-14.47-13.71v-147.35c0-7.56,6.5-13.71,14.47-13.71Z"/>
      <path class="cls-25" d="M421.1,450.92h-35.45c-4.55,0-8.26-3.52-8.26-7.83s3.72-7.85,8.26-7.85h35.45c4.55,0,8.26,3.54,8.26,7.85s-3.72,7.83-8.26,7.83Z"/>
      <path class="cls-40" d="M387.49,452.71c-5.61,0-10.1-4.31-10.1-9.57s4.55-9.57,10.1-9.57,10.1,4.31,10.1,9.57c.06,5.27-4.49,9.57-10.1,9.57Z"/>
      <path class="cls-25" d="M385.65,495.98h35.45c4.55,0,8.26,3.52,8.26,7.83s-3.72,7.85-8.26,7.85h-35.45c-4.55,0-8.26-3.54-8.26-7.85s3.72-7.83,8.26-7.83Z"/>
      <path class="cls-50" d="M419.27,494.24c5.61,0,10.1,4.32,10.1,9.57s-4.55,9.57-10.1,9.57-10.1-4.31-10.1-9.57c-.06-5.25,4.49-9.57,10.1-9.57Z"/>
      <path class="cls-25" d="M385.65,556.72h35.45c4.55,0,8.26,3.54,8.26,7.85s-3.72,7.83-8.26,7.83h-35.45c-4.55,0-8.26-3.52-8.26-7.83s3.72-7.85,8.26-7.85Z"/>
      <path class="cls-50" d="M419.27,554.99c5.61,0,10.1,4.31,10.1,9.57s-4.55,9.57-10.1,9.57-10.1-4.31-10.1-9.57c-.06-5.27,4.49-9.57,10.1-9.57Z"/>
      <path class="cls-25" d="M385.65,465.64h35.45c4.55,0,8.26,3.54,8.26,7.85s-3.72,7.83-8.26,7.83h-35.45c-4.55,0-8.26-3.52-8.26-7.83s3.72-7.85,8.26-7.85Z"/>
      <path class="cls-40" d="M387.49,463.86c5.61,0,10.1,4.31,10.1,9.56s-4.56,9.57-10.1,9.57-10.1-4.31-10.1-9.57,4.55-9.56,10.1-9.56Z"/>
      <path class="cls-25" d="M385.65,526.38h35.45c4.55,0,8.26,3.52,8.26,7.83s-3.72,7.85-8.26,7.85h-35.45c-4.55,0-8.26-3.54-8.26-7.85s3.72-7.83,8.26-7.83Z"/>
      <path class="cls-40" d="M387.49,524.64c5.61,0,10.1,4.31,10.1,9.57s-4.56,9.57-10.1,9.57-10.1-4.31-10.1-9.57,4.55-9.57,10.1-9.57Z"/>
    </g>
    <g>
      <path class="cls-14" d="M179.71,137.21l69.13-65.53c2.18-2.07,5.71-2.07,7.89,0l69.13,65.53"/>
      <path class="cls-25" d="M149.49,128.86h206.62c4.64,0,8.46,3.6,8.46,8.02v98.83c0,4.41-3.81,8.02-8.46,8.02h-206.62c-4.66,0-8.46-3.6-8.46-8.02v-98.83c0-4.41,3.8-8.02,8.46-8.02Z"/>
    </g>
    <g>
      <path class="cls-7" d="M225.46,584.17v28.25"/>
      <path class="cls-7" d="M225.46,692.58v28.25"/>
      <path class="cls-7" d="M293.79,652.5h-28.25"/>
      <path class="cls-7" d="M185.38,652.5h-28.25"/>
      <path class="cls-7" d="M177.2,604.24l19.89,19.89"/>
      <path class="cls-7" d="M253.88,680.92l19.89,19.89"/>
      <path class="cls-7" d="M273.77,604.24l-19.89,19.89"/>
      <path class="cls-7" d="M197.08,680.92l-19.89,19.89"/>
    </g>
    <g>
      <path class="cls-7" d="M800.46,131.17v28.25"/>
      <path class="cls-7" d="M800.46,239.58v28.25"/>
      <path class="cls-7" d="M868.79,199.5h-28.25"/>
      <path class="cls-7" d="M760.38,199.5h-28.25"/>
      <path class="cls-7" d="M752.2,151.24l19.89,19.89"/>
      <path class="cls-7" d="M828.88,227.92l19.89,19.89"/>
      <path class="cls-7" d="M848.77,151.24l-19.89,19.89"/>
      <path class="cls-7" d="M772.08,227.92l-19.89,19.89"/>
    </g>
    <g>
      <path class="cls-7" d="M2043.46,131.17v28.25"/>
      <path class="cls-7" d="M2043.46,239.58v28.25"/>
      <path class="cls-7" d="M2111.79,199.5h-28.25"/>
      <path class="cls-7" d="M2003.38,199.5h-28.25"/>
      <path class="cls-7" d="M1995.2,151.24l19.89,19.89"/>
      <path class="cls-7" d="M2071.88,227.92l19.89,19.89"/>
      <path class="cls-7" d="M2091.77,151.24l-19.89,19.89"/>
      <path class="cls-7" d="M2015.08,227.92l-19.89,19.89"/>
    </g>
    <path class="cls-24" d="M2358.08,635.52c3.35-3.36,6.72-6.7,10.07-10.07,15.23-15.29,23.92-33.59,23.75-55.48-.05-32.4-21.96-60.71-53.37-68.99-26.82-6.98-50.71-.81-70.88,18.4-3.69,3.52-6.98,7.47-11.05,11.85-4.07-4.38-7.36-8.33-11.05-11.85-20.17-19.22-44.06-25.39-70.88-18.4-31.42,8.28-53.32,36.59-53.37,68.99-.16,21.89,8.52,40.19,23.75,55.48,26.69,26.82,53.56,53.45,80.33,80.19l31.27,31.29c9.17-9.21,18.08-18.19,27.01-27.12M2249.83,671.59h142.07M2320.87,742v-140.81"/>
    <g>
      <path class="cls-25" d="M141.99,122.29h213.06c8.67,0,15.64,7.01,15.64,15.68v162.39c0,8.67-7.02,15.63-15.64,15.63h-213.06c-8.67,0-15.69-7.01-15.69-15.63v-162.39c.05-8.67,7.02-15.68,15.69-15.68Z"/>
      <path class="cls-40" d="M160.98,142.36h67.34c3.97,0,7.23,3.25,7.23,7.23v.31c0,3.97-3.25,7.23-7.23,7.23h-67.34c-3.97,0-7.23-3.25-7.23-7.23v-.31c0-3.97,3.25-7.23,7.23-7.23Z"/>
      <path class="cls-40" d="M327.24,142.36h43.45v14.76h-43.45c-3.97,0-7.23-3.25-7.23-7.23v-.31c0-3.97,3.25-7.23,7.23-7.23Z"/>
      <path class="cls-39" d="M217.48,211.25h22.5c3.97,0,7.23,3.25,7.23,7.22v.31c0,3.97-3.25,7.23-7.23,7.23h-22.5c-3.97,0-7.22-3.25-7.22-7.23v-.31c0-4.02,3.25-7.22,7.22-7.22Z"/>
      <path class="cls-52" d="M195.3,280.14h22.5c3.97,0,7.22,3.25,7.22,7.23v.31c0,3.97-3.25,7.23-7.22,7.23h-22.5c-3.97,0-7.23-3.25-7.23-7.23v-.31c0-4.02,3.25-7.23,7.23-7.23Z"/>
      <path class="cls-52" d="M244.42,280.14h43.6c3.97,0,7.23,3.25,7.23,7.23v.31c0,3.97-3.25,7.23-7.23,7.23h-43.6c-3.97,0-7.23-3.25-7.23-7.23v-.31c0-4.02,3.2-7.23,7.23-7.23Z"/>
      <path class="cls-44" d="M217.48,245.67h76.84c3.97,0,7.22,3.25,7.22,7.23v.31c0,3.97-3.25,7.23-7.22,7.23h-76.84c-3.97,0-7.22-3.25-7.22-7.23v-.31c0-3.97,3.25-7.23,7.22-7.23Z"/>
      <path class="cls-48" d="M160.98,176.78h67.34c3.97,0,7.23,3.25,7.23,7.23v.31c0,3.97-3.25,7.23-7.23,7.23h-67.34c-3.97,0-7.23-3.25-7.23-7.23v-.31c0-3.97,3.25-7.23,7.23-7.23Z"/>
      <path class="cls-48" d="M263.92,176.68h34.11c3.97,0,7.23,3.25,7.23,7.23v.31c0,3.97-3.25,7.22-7.23,7.22h-34.11c-3.97,0-7.22-3.25-7.22-7.22v-.31c0-4.02,3.25-7.23,7.22-7.23Z"/>
      <path class="cls-25" d="M141.99,122.29h29.21v193.71h-29.21c-8.67,0-15.69-7.01-15.69-15.63v-162.39c0-8.67,7.02-15.68,15.69-15.68Z"/>
      <path class="cls-27" d="M141.99,122.29h29.21v193.71h-29.21c-8.67,0-15.69-7.01-15.69-15.63v-162.39c0-8.67,7.02-15.68,15.69-15.68Z"/>
      <path class="cls-18" d="M370.69,166.67h-198.97"/>
      <path class="cls-18" d="M370.69,201.5h-198.97"/>
      <path class="cls-18" d="M370.69,236.85h-198.97"/>
      <path class="cls-18" d="M370.69,270.08h-198.97"/>
      <path class="cls-17" d="M171.2,122.29v193.71"/>
      <path class="cls-8" d="M143.75,149.75h10.01"/>
      <path class="cls-8" d="M143.75,184.06h10.01"/>
      <path class="cls-8" d="M143.75,218.37h10.01"/>
      <path class="cls-8" d="M143.75,253.2h10.01"/>
      <path class="cls-8" d="M143.75,287.52h10.01"/>
    </g>
  </g>
  <g id="Layer_6" data-name="Layer 6">
    <rect class="cls-42" x="246" y="786.55" width="949.62" height="29.08"/>
    <rect class="cls-42" x="161.64" y="937.64" width="329" height="39.73" transform="translate(1283.64 631.36) rotate(90)"/>
    <g>
      <path class="cls-42" d="M931.14,1122.2v-280.28c0-14.61,11.77-26.54,26.21-26.54h175.56c14.43,0,26.2,11.92,26.2,26.54v280.28h-227.97Z"/>
      <path class="cls-46" d="M952.15,1100.91v-252.39c0-6.53,5.26-11.85,11.7-11.85h162.6c6.45,0,11.7,5.32,11.7,11.85v252.39h-186.01Z"/>
      <path class="cls-12" d="M1137.95,924.93h-185.65"/>
      <path class="cls-12" d="M1137.95,1013h-185.65"/>
      <path class="cls-33" d="M1045.83,897.26c4.9,0,8.89-4.03,8.89-9.01s-3.98-9.01-8.89-9.01-8.9,4.05-8.9,9.01,3.98,9.01,8.9,9.01Z"/>
      <path class="cls-33" d="M1045.83,985.26c4.9,0,8.89-4.05,8.89-9.01s-3.98-9.01-8.89-9.01-8.9,4.03-8.9,9.01,3.98,9.01,8.9,9.01Z"/>
      <path class="cls-33" d="M1045.83,1073.24c4.9,0,8.89-4.03,8.89-9.01s-3.98-9.01-8.89-9.01-8.9,4.03-8.9,9.01,3.98,9.01,8.9,9.01Z"/>
      <path class="cls-52" d="M1045.83,889.95c4.9,0,8.89-4.03,8.89-9.01s-3.98-9.01-8.89-9.01-8.9,4.03-8.9,9.01,3.98,9.01,8.9,9.01Z"/>
      <path class="cls-52" d="M1045.83,977.95c4.9,0,8.89-4.05,8.89-9.01s-3.98-9.01-8.89-9.01-8.9,4.02-8.9,9.01,3.98,9.01,8.9,9.01Z"/>
      <path class="cls-52" d="M1045.83,1065.93c4.9,0,8.89-4.03,8.89-9.01s-3.98-9.01-8.89-9.01-8.9,4.03-8.9,9.01,3.98,9.01,8.9,9.01Z"/>
    </g>
    <rect class="cls-46" x="858.08" y="751.83" width="107.62" height="34.72"/>
    <path class="cls-21" d="M1575.68,891.1c6.88-2.42,13.54-5.45,19.89-9.04"/>
    <path class="cls-21" d="M1523.52,906.43c0,15.65,12.69,28.33,28.33,28.33s28.33-12.69,28.33-28.33-12.69-28.33-28.33-28.33-28.33,12.69-28.33,28.33"/>
    <path class="cls-21" d="M1543.76,906.43c0,4.47,3.62,8.1,8.09,8.1,4.47,0,8.1-3.62,8.1-8.09h0c0-4.48-3.62-8.1-8.09-8.11-4.47,0-8.1,3.62-8.1,8.09h0"/>
    <path class="cls-21" d="M1692.39,926.82l-3.46,7.29-41.41-26.3c-7.8-4.96-10.69-14.96-6.73-23.32h0c3.96-8.36,13.52-12.47,22.3-9.58l46.62,15.33-3.46,7.29"/>
    <path class="cls-21" d="M1624.63,862.63c21.46-16.24,56.75-46.95,56.75-73.33,0-44.39-55.71-56.5-72.86-16.15-17.15-40.35-72.86-28.24-72.86,16.15,0,37.89,69.89,82.8,72.86,84.75,9.53,6.23,27.18,13.76,31.76,11.61"/>
    <g>
      <path class="cls-50" d="M1973.27,857.07c-4.88,0-9.08-1.91-11.85-5.25-2.87-3.45-3.92-8.13-2.87-13l7.16-36.99c2.01-10.03,11.86-18.25,21.89-18.25h139.24c4.87,0,9.07,1.91,11.85,5.26,2.87,3.44,3.92,8.13,2.87,12.99l-7.17,36.99c-2,10.04-11.85,18.25-21.88,18.25h-139.24Z"/>
      <path class="cls-45" d="M1975.28,929.71h-.38c-1.06-.19-1.72-1.25-1.53-2.2l13.76-70.72c.19-1.06,1.25-1.72,2.2-1.53,1.05.19,1.72,1.24,1.53,2.19l-13.77,70.73c-.09.86-.96,1.53-1.81,1.53Z"/>
      <path class="cls-45" d="M2085.18,929.71h-.38c-1.05-.19-1.72-1.25-1.53-2.2l13.77-70.72c.19-1.06,1.24-1.72,2.19-1.53,1.06.19,1.72,1.24,1.53,2.19l-13.76,70.73c-.1.86-.96,1.53-1.82,1.53Z"/>
      <path class="cls-45" d="M1856.95,1124.67h-.38c-1.06-.19-1.72-1.25-1.53-2.2l33.64-174.89c.19-1.06,1.24-1.72,2.19-1.53,1.06.19,1.72,1.24,1.53,2.19l-33.64,174.9c-.09.86-.96,1.53-1.81,1.53Z"/>
      <path class="cls-45" d="M1937.61,1124.67h-.38c-1.05-.19-1.72-1.25-1.53-2.2l33.64-174.89c.19-1.06,1.25-1.72,2.2-1.53,1.05.19,1.72,1.24,1.53,2.19l-33.64,174.9c-.1.86-.96,1.53-1.82,1.53Z"/>
      <path class="cls-45" d="M2129.9,1124.67c-.86,0-1.72-.67-1.91-1.53l-33.65-174.9c-.19-1.05.48-2,1.53-2.19,1.06-.19,2.01.47,2.2,1.53l33.64,174.89c.19,1.06-.47,2.01-1.53,2.2h-.28Z"/>
      <path class="cls-45" d="M2049.24,1124.67c-.86,0-1.72-.67-1.91-1.53l-33.64-174.9c-.19-1.05.47-2,1.53-2.19,1.05-.19,2,.47,2.19,1.53l33.65,174.89c.19,1.06-.48,2.01-1.54,2.2h-.28Z"/>
      <path class="cls-50" d="M1886.59,948.82c-5.83,0-10.52-4.68-10.52-10.51s4.69-10.51,10.52-10.51h213.12c5.82,0,10.51,4.68,10.51,10.51s-4.69,10.51-10.51,10.51h-213.12Z"/>
      <path class="cls-50" d="M2010.83,948.82c-5.83,0-10.51-4.68-10.51-10.51s4.68-10.51,10.51-10.51h88.88c5.82,0,10.51,4.68,10.51,10.51s-4.69,10.51-10.51,10.51h-88.88Z"/>
    </g>
    <g>
      <path class="cls-37" d="M1823.49,1030.6l-76.21-39.31-2.31,9.17c-1.9,9.99-3.55,17.66-4.63,20.31l4.63,50.53h61.1l8.59-4.12c3.55-9.75,6.19-19.08,8.75-28.49l.08-8.09Z"/>
      <path class="cls-37" d="M1940.49,1065.94l2.23-5.03c-1.08-9.82-2.48-19.65-4.3-28.81l-4.21-12.64-84.71,1.4,1.89,10.73c2.23,7.44,3.96,15.36,4.46,20.56l22.37,43.26,62.25-29.48Z"/>
      <path class="cls-25" d="M2002.67,843.18l-5.87-27-96.85,5.2-5.87,3.06s-78.27,6.27-107.67,36.41c-23.12,23.86-25.93,56.73-34.84,103.87-2.31,12.64-4.54,25.43-6.61,35.68l78.44,38.31c13.71-51.52,14.95-77.12,14.78-110.47l95.12.25c45.08.32,78.84-41.37,69.36-85.29Z"/>
      <path class="cls-28" d="M1838.27,928.39l-16.68-41.78c-26.83,21.55-21.54,67.79,7.27,130.29,8.59-37.73,9.41-60.43,9.41-88.51Z"/>
      <path class="cls-25" d="M2041.88,858.86c-6.02-26.01-15.6-42.44-15.6-42.44l-53.84,3.38s-111.71,12.47-145.89,53.17c-27.99,33.19,11.06,113.86,24.93,159.11h87.11c-7.52-39.22-19.98-73.57-34.93-103.21h71.01c54.16,0,75.38-34.1,67.2-70.01Z"/>
      <path class="cls-28" d="M1889.05,902.12l14.28,26.75s80.01,0,56.56,0c-30.63-.08-59.7-30.05-70.84-26.75Z"/>
      <path class="cls-11" d="M1871.38,844.25c-18.49,7.43-34.93,16.84-45.08,28.81-19.57,23.29-6.03,70.02,8.51,111.55"/>
      <path class="cls-11" d="M1851.57,1032.26h86.86"/>
      <path class="cls-11" d="M1744.97,1000.39l78.44,38.31"/>
      <path class="cls-37" d="M1900.04,600.18c.99-11.64-1-31.13,7.84-42.6,8.75-11.64,37.98-5.87,60.28,3.88,19.98,8.67,21.22,20.4,21.22,38.89v58.37l-1.9,27.17-56.31,8.75v-49.62s-17.09,4.63-26.17-3.8c-11.81-10.9-6.03-29.39-4.95-41.03Z"/>
      <path class="cls-26" d="M1945.77,639.81l-14.03,12.96c-.25.25-.66.08-.66-.24v-7.27c0-.17.08-.33.25-.33,1.32-.41,7.19-2.23,13.96-5.77.49-.17.82.32.49.66Z"/>
      <path class="cls-46" d="M1890.21,676.88c17.67-17.66,37.65-21.55,40.95-21.96,0,0,.42,22.87,23.45,22.87s34.92-22.87,34.92-22.87c13.05,3.38,25.11,9.5,35.92,17.42l5.28,152.58h-136.49l5.37-49.62c-2.31,3.39-6.52,8.18-9.41,11.32l-35.5-69.11c8.67-11.4,23.53-28.57,35.5-40.63Z"/>
      <path class="cls-33" d="M2016.95,736.91l13.71,87.85h-50.46l15.61-69.76c.82-3.8,3.22-7.1,6.6-9.16l14.53-8.92Z"/>
      <path class="cls-33" d="M1902.92,742.86l-3.38,32.44c0,.08-.08.17-.08.25-2.31,3.31-5.12,6.52-8.01,9.66-3.06,3.22-7.34,6.77-12.3,10.15-.41.33-1.07-.16-.82-.66l23.53-52.1c.25-.58,1.15-.33,1.07.25Z"/>
      <path class="cls-12" d="M1903.83,739.88l-4.38,37.32"/>
      <path class="cls-16" d="M1964.19,608.44l-7.76,5.52"/>
      <path class="cls-46" d="M1993.09,711.89c1.81-37.65,32.2-39.46,32.2-39.46,11.06,8.09,33.76,33.44,50.61,62.99l-64.57,30.55c-7.93-16.43-18.83-41.94-18.24-54.08Z"/>
      <path class="cls-37" d="M1900.04,812.46c0-5.45,24.19-12.47,48.05-17.92,24.19-5.62,68.44-11.47,71.5-11.89.08,0,.17-.08.08-.17-.58-1.15-4.71-8.58-9.33-18.66,0-.08,0-.17.08-.17l63.91-30.88c.08,0,.17,0,.17.08,8.26,14.37,18,32.95,22.62,49.79,13.87,51.35-23.62,57.8-42.11,58.79-18.08.99-67.7-5.53-68.94-5.7h-.08c-.99.33-37.98,11.15-49.79,11.15-10.73,0-11.14-4.38-11.06-5.28,0-.08-.08-.17-.17-.08-1.4.33-12.06,2.56-11.72-7.35,0-.08-.08-.17-.17-.17-1.07.17-7.59,1.25-8.76-3.38-1.89-7.19,21.8-16.1,28.41-18.74.17-.08.08-.25-.08-.25-12.63,3.47-32.61,9-32.61.83Z"/>
      <path class="cls-16" d="M2019.68,782.57l18.49,9.16"/>
      <path class="cls-12" d="M2010.26,763.74l-7.93-17.83"/>
      <path class="cls-16" d="M1925.14,841.36l29.31-9.99"/>
      <path class="cls-16" d="M1913.25,833.93s19.98-9.17,36.66-15.2"/>
      <path class="cls-16" d="M1933.15,811.63l11.56-4.13"/>
      <path class="cls-40" d="M1826.88,1108.13c9.09-15.11,29.07-18.91,29.15-49.29,0-1.65,0-3.56-.17-5.37-.17-.83-.17-1.49-.25-2.31h20.15c7.1,0,12.63,6.27,11.39,13.45l-3.13,19.74s22.12-21.8,58.71-23.45c.82,6.61,1.32,13.13,1.73,19.98.17,2.48.25,5.2.42,7.69.25,6.27.66,13.21.66,19.73l-.91,1.73-118.32.66.57-2.31c-.07-.17,0-.25,0-.25Z"/>
      <path class="cls-45" d="M1826.8,1108.3h118.72c.17,5.45.25,11.22.08,17.01h-123.02c0-4.63.66-8.51,1.81-11.81.66-1.9,1.4-3.71,2.4-5.2Z"/>
      <path class="cls-12" d="M1853.87,1075.23l13.14,5.48"/>
      <path class="cls-12" d="M1847.94,1085.93l10.73,8.24"/>
      <path class="cls-12" d="M1884.18,1084.19l-4.95,24.11"/>
      <path class="cls-40" d="M1689.73,1056.86c14.78-9.5,34.44-3.96,48.22-31.12.83-1.49,1.49-3.14,2.31-4.96,0-.17.17-.17.17-.17l14.29,6.85c7.43,3.56,9.82,12.89,5.2,19.57l-10.24,14.78s30.55-10.41,64.99,5.37c-2.23,5.86-4.54,11.81-7.02,17.83-.99,2.31-2.07,4.79-3.06,7.27-2.48,5.86-5.2,11.81-8.09,17.66-.25.5-.91,1.82-.99,1.99l-106.1-54.83s.08-.08.32-.25Z"/>
      <path class="cls-45" d="M1685.94,1060c1.24-1.07,2.31-2.14,3.56-2.97l106.75,53.5c-2.31,4.95-4.79,9.75-7.51,14.78l-110.14-54.91c2.14-4.54,4.62-7.93,7.34-10.4Z"/>
      <path class="cls-12" d="M1727.28,1040.51l8.86,10.66"/>
      <path class="cls-12" d="M1716.83,1047.04l5.19,11.39"/>
      <path class="cls-12" d="M1749.35,1061.97l-14.21,17.51"/>
      <path class="cls-11" d="M2041.06,855.23h-25.6l4.13,23.86c1.65,9.5,9.83,16.43,19.57,16.43"/>
      <path class="cls-11" d="M1903.5,928.88s-7.43-13.87-10.82-20.31"/>
      <path class="cls-37" d="M1750.59,676.23c.82-2.39,2.89-3.47,3.13-3.56-2.56-3.8-1.73-6.93-.66-8.91,1.24-2.14,2.97-3.38,3.06-3.38-1.16-5.95,1.89-8.51,4.7-9.58,1.15-.5,2.31-.66,2.97-.75.25,0,.41-.24.33-.49-.58-1.49-1.9-5.87,2.64-9.66.74-.5,1.48-.99,2.39-1.32,3.3-1.32,9-.33,9-.33,8.42,1.32,17.75,8.09,17.75,8.09,0,0-1.82-32.69,10.07-15.35,11.97,17.75,40.13,97.18,40.13,97.18,0,0,3.55-4.54,9.08-11.4l36.41,68.28c-8.59,9.83-27,22.13-51.11,22.13-58.79,0-62.5-111.96-62.5-111.96,0,0-2.73-1-6.27-2.81-.58,1.15-1.65,2.06-3.22,2.73-3.55,1.4-11.97-3.81-16.51-11.65-1.65-2.73-2.07-5.2-1.4-7.26Z"/>
      <path class="cls-26" d="M1845.3,743.19l.82-14.86c0-.08,0-.17.08-.17.33-.5,2.31-2.97,5.03-6.36.25-.33.75-.08.58.32l-5.87,21.22c-.08.42-.66.33-.66-.16Z"/>
      <path class="cls-16" d="M1846.12,728.24l-.74,13.78"/>
      <path class="cls-16" d="M1771.73,692.73c1.24-2.23.74-4.54-.42-7.26-.08-.25.17-.5.42-.42,1.4.66,4.38,1.74,7.02.75.82-.33,1.56-.83,2.23-1.57,2.97-3.39.91-6.94.17-8.18-.08-.17,0-.33.17-.33.66.08,2.06.08,3.38-.42,1.49-.57,2.64-1.65,3.31-3.3,1.56-3.39-.91-6.77-1.99-8.01-.17-.25-.08-.5.25-.58.58-.08,1.4-.16,2.23-.49,1.65-.66,2.56-1.74,2.64-3.22.66-6.6-7.26-10.32-11.56-12.3-1.07-.49-1.99-.99-2.39-1.32"/>
      <path class="cls-16" d="M1785.84,663.59c-14.61-4.87-21.3-13.29-21.3-13.29"/>
      <path class="cls-16" d="M1781.06,675.98c-10.65-3.31-21.97-11.56-24.77-15.44"/>
      <path class="cls-16" d="M1771.48,684.97c-12.55-6.19-17.59-12.22-17.59-12.22"/>
      <path class="cls-16" d="M1795.92,646.42c0,3.47,1.15,11.07,1.15,11.07,0,0-6.03,18.08-1.32,32.78"/>
      <path class="cls-9" d="M1992.76,620v12.3"/>
    </g>
    <circle class="cls-44" cx="1591.51" cy="469.48" r="22.85"/>
    <path class="cls-23" d="M919.14,466.67v-136.5c0-7.8,6.38-14.17,14.17-14.17h643.93c7.8,0,14.17,6.38,14.17,14.17v139.31"/>
    <path class="cls-44" d="M1851.97,709.17l2.45,97.55s29.6-10.75,38.26-21.13l-1.66-109.65-39.05,33.23Z"/>
    <path class="cls-44" d="M1877,709.15c-7.18-19.69-15.63-38.92-25.31-57.51-4.72-9.07-9.69-18.04-15.07-26.75-5.12-8.27-10.77-16.3-17.59-23.26-12.66-12.93-30.42-22.28-48.94-19.59-15.85,2.3-29.21,13.3-37.5,26.59-9.81,15.74-11.92,34.55-9.47,52.66,2.77,20.56,10.94,39.77,19.57,58.46,4.31,9.34,8.76,18.63,12.71,28.14,3.79,9.12,7.35,18.52,9.43,28.2,1.8,8.36,2.5,17.82-1.33,25.74-3.42,7.07-9.95,11.47-17.44,13.29-7.62,1.86-15.74,1.43-23.45.34-9.8-1.39-19.52-3.7-29.15-5.93-20.96-4.85-41.69-10.7-62.09-17.52-4.96-1.66-9.91-3.38-14.83-5.15-1.82-.65-2.6,2.24-.8,2.89,20.17,7.26,40.67,13.57,61.43,18.89,10.3,2.64,20.66,5.04,31.07,7.19,8.35,1.73,16.76,3.39,25.32,3.51,7.54.11,15.45-.94,22.07-4.8,7-4.08,11.57-11.1,12.99-19.02,1.55-8.68.04-17.65-2.35-26.04-2.79-9.82-6.56-19.34-10.66-28.69-8.2-18.75-17.87-36.92-24.09-56.47-5.95-18.69-9.14-39.43-3.42-58.59,4.51-15.11,14.83-29.08,28.98-36.38,7.1-3.66,15.04-5.33,23.01-4.69,9.21.74,18,4.46,25.6,9.6,16.15,10.93,26.5,28.33,35.87,44.97,10.24,18.17,19.3,37.02,27.07,56.38,1.9,4.74,3.72,9.51,5.47,14.31.66,1.8,3.56,1.02,2.89-.8h0Z"/>
    <rect class="cls-44" x="1568.66" y="783.11" width="86.4" height="22.43"/>
    <path class="cls-11" d="M1578.47,796.72h54.16"/>
    <g>
      <polygon class="cls-52" points="1522.13 538.91 1612.69 545.46 1612.69 619.44 1522.13 614.05 1522.13 538.91"/>
      <ellipse class="cls-35" cx="1548.53" cy="600.56" rx="10.6" ry="8.86"/>
      <g>
        <path class="cls-49" d="M1553.62,602.75l-.25-.21c-.08-1.74-.04-3.44-.12-5.19-.21-3.36,1.37-6.43,1.2-9.5-.41-6.84.96-12.86.87-16.06-.25-8.92,2.2-11.49,11.45-11.99.62-.04,3.03-1.58,3.65-1.58,8.05,0,12.28.25,16.06,5.39.41.54,2.28.29,2.57.96,1.53,3.32,1.95,8.05,2.28,11.91.13,1.78.33,3.53.67,5.27l.17.67c.95,4.32,1.87,8.42-.21,12.45-1.54,2.91-5.35,4.86-9.58,4.86-1.08,0-2.16-.13-3.2-.42l.04,3.48h-25.6v-.04Z"/>
        <path class="cls-31" d="M1573.58,604.16l-2.32-6.72c-.08-.25-.04-.5.08-.71.2-.33,1.33-.08,1.66.13,2.12,1.2,6.18,2.4,6.18,2.4l.04,3.28-5.64,1.62Z"/>
        <path class="cls-35" d="M1553.04,593.62c-.17-3.36-.33-6.52-.54-9.38-.33-5.06-.62-9.38-.71-12.49-.25-8.84,6.6-16.39,16.18-16.85.62-.04,1.24-.04,1.87-.04,8.09,0,14.52,2.62,18.22,7.84.62.87.99,1.83.99,1.83-.04.04-1.24,1.41-5.1,1.41-2.57,0-5.68-.58-9.29-1.78,1.12,1.7,1.37,3.57.66,4.98-.83,1.7-2.99,2.66-6.02,2.66-.75,0-1.53-.04-2.28-.17-.04,0-.08.04-.08.08,1.04,2.37,1.37,5.06.83,7.63l-.04.21-.17-.08c-1.74-.66-3.57-1.04-5.39-1.08-2.57,0-4.23,1-4.86,2.95-1.58,4.77,7.06,9.96,7.14,10l.17.12-.12.17c-4.6,4.98-10.95,5.64-10.99,5.64l-.25.04s-.12-2.53-.21-3.69Z"/>
        <path class="cls-6" d="M1579.18,599.26c-1.95-.71-4.19-1.37-5.98-2.4"/>
        <path class="cls-6" d="M1566.78,585.53l-3.32-1.33"/>
        <path class="cls-6" d="M1583.66,580.34l.25.91c.17.54,0,1.08-.42,1.45l-.12.12"/>
        <path class="cls-6" d="M1584.54,586.81c-.58.42-2.57.46-3.65-.87"/>
        <path class="cls-45" d="M1578.02,579.6c.57,0,1.04-.47,1.04-1.04s-.46-1.04-1.04-1.04-1.04.47-1.04,1.04.46,1.04,1.04,1.04Z"/>
        <path class="cls-45" d="M1587.23,578.19c.57,0,1.04-.47,1.04-1.04s-.46-1.04-1.04-1.04-1.04.47-1.04,1.04.47,1.04,1.04,1.04Z"/>
        <path class="cls-25" d="M1534.16,615.36c2.53-3.61,8.05-9.63,16.39-9.63,1.12,0,1.78.04,2.86.29l-.04-3.48h25.85l.46,4.27c1.04-.17,2.07-.29,3.11-.25,4.9,0,14.4,1.66,23.24,12.82"/>
        <path class="cls-5" d="M1553.41,606.02c1.62.75,4.4,2.08,5.81,3.24"/>
      </g>
      <path class="cls-35" d="M1546.42,593.33h0c-.98-5.26-2.6-26.54,3.15-31.6,3.7-3.23,9.02-5.1,14.57-5.1,2.91,0,5.79.51,8.47,1.56,3.07,1.13,5.67,3.27,7.33,6.07v.08s-.83,5.72-6.62,5.72c-.16,0-.32,0-.25.02.57,3.99-.1,6.91-.85,8.71-.39,1.09-1.02,2.06-1.77,2.96l-.04.04-.04-.04s-5-4.24-9.1-4.24c-1.5-.04-2.95.66-3.78,1.91-3.86,5.33,5.51,12.73,5.51,12.73,0,0,1.58,5.68-.87,8.8-1.1,1.4-2.8,2.14-5.08,2.14-.91,0-1.81-.12-2.72-.27"/>
    </g>
    <path class="cls-38" d="M1963.4,634.28s26-17.45,19.56-31.23c-6.43-13.77-27.55-5.51-27.55-5.51,0,0-8.27-3.68-6.43-20.21,0,0-23.89,14.7-26.64-11.02,0,0-32.15,11.94-36.75-16.53-4.87-30.03,28.47-43.17,48.68-25.72,0,0,8.27-17.45,27.55-13.78,17.27,3.31,20.21,20.21,20.21,20.21,0,0,19.38-6.34,27.55,4.6,8.28,11.01.92,24.8.92,24.8,0,0,18.19,6.53,15.62,25.72-1.01,8.09-5.33,15.43-11.94,20.21,0,0,16.53,10.1,4.59,25.72,0,0,7.36,17.46-11.01,25.73-18.1,8.18-36.1-7.35-44.37-22.97Z"/>
    <path class="cls-22" d="M1917.29,608.48l-.27-.28c-1.02-.83-1.29-2.2-.83-3.31l.55-2.11"/>
    <path class="cls-35" d="M1929.5,601.22c1.32,0,2.39-1.07,2.39-2.39s-1.07-2.39-2.39-2.39-2.39,1.08-2.39,2.39,1.07,2.39,2.39,2.39Z"/>
    <path class="cls-35" d="M1908.56,598.09c1.31,0,2.39-1.07,2.39-2.39s-1.08-2.39-2.39-2.39-2.39,1.07-2.39,2.39,1.07,2.39,2.39,2.39Z"/>
    <path class="cls-22" d="M1932.45,645.95c4.04-1.1,8.53-1.74,12.21-2.94"/>
    <path class="cls-34" d="M1932.45,645.95l.36,8.83s9.29-3.22,16.26-9.84c.64-.64.73-1.74.09-2.39-.46-.46-1.19-.64-1.84-.46-4.87,1.66-9.82,2.94-14.87,3.86Z"/>
    <path class="cls-22" d="M1934.28,524.06c-3.67,5.51,0,14.42,0,14.42"/>
    <path class="cls-22" d="M1982.04,530.49c-10.56,5.52-11.48,10.93-11.48,10.93"/>
    <path class="cls-22" d="M1922.35,566.31c8.27-3.12,11.93-6.98,11.93-6.98"/>
    <path class="cls-22" d="M1948.98,577.34c.82-8.27,5.6-15.61,5.6-15.61"/>
    <ellipse class="cls-22" cx="1926.67" cy="623.52" rx="6.45" ry="4.1"/>
    <g>
      <g>
        <path class="cls-46" d="M1195.62,390.25h-572.37v361.05h572.37v-361.05Z"/>
        <path class="cls-44" d="M1153.06,427.28h-487.25v286.99h487.25v-286.99Z"/>
        <path class="cls-20" d="M695.86,625.16h214.18"/>
        <path class="cls-20" d="M695.86,641.4h100.8"/>
        <path class="cls-20" d="M695.86,665.77h157.49"/>
      </g>
      <path class="cls-25" d="M908.16,665.46l-36.04-13.32s-.09,0-.04.05l12.32,36.4s.04.05.09,0l4.61-10.54s.04-.04.09,0l8.35,8.49h.04l8.26-8.03v-.05l-8.3-8.53v-.09l10.58-4.29s.04-.09.04-.09Z"/>
      <g>
        <g>
          <path class="cls-52" d="M965.01,453.39h150.67c2.08,0,4.14.41,6.07,1.21,1.93.8,3.67,1.96,5.15,3.44,1.47,1.47,2.64,3.22,3.44,5.15.8,1.93,1.21,3.99,1.21,6.07v110.15c0,2.08-.41,4.14-1.21,6.07-.8,1.92-1.96,3.67-3.44,5.15-1.47,1.47-3.22,2.64-5.15,3.44-1.93.8-3.98,1.21-6.07,1.21h-150.67c-2.08,0-4.14-.41-6.07-1.21-1.93-.8-3.67-1.96-5.15-3.44-1.47-1.47-2.64-3.22-3.44-5.15-.8-1.93-1.21-3.99-1.21-6.07h0v-110.15c0-2.08.41-4.14,1.21-6.07.8-1.93,1.96-3.67,3.44-5.15s3.22-2.64,5.15-3.44c1.93-.8,3.98-1.21,6.07-1.21h0Z"/>
          <path class="cls-51" d="M1030.74,475.22c0-2.52,1-4.94,2.79-6.72,1.78-1.78,4.2-2.78,6.72-2.79h69.43c2.52,0,4.94,1,6.72,2.79,1.78,1.78,2.79,4.2,2.79,6.72v80.22c-9.7-6.73-22.28-6.81-22.41-6.81-.04.09-5.49,9.07-19.54,9.07-1.24,0-2.47-.07-3.7-.19-6.86-.71-7.42-8.8-7.43-8.88-3.61.13-7.21.55-10.75,1.24-9.17,4.84-11.93,2.34-17.76,7.88-2.53,2.42-4.82,5.08-6.84,7.94v.02s-.01-90.49-.01-90.49Z"/>
          <path class="cls-49" d="M1095.37,544.08v-.04c.34-6.74,1.16-23.1,1.24-29.2.13-13.44-6.95-22.03-19.02-22.97-1.2-.08-2.36-.13-3.48-.13-9.06,0-15.37,3.01-19.32,9.19-2.32,3.61-2.79,8.33-3.35,13.31-.26,2.28-.51,4.64-.94,7.09l-.13.6c-.94,5.28-1.93,10.69,1.07,15.07,2.45,3.56,7.3,4.34,10.99,4.34,1.55,0,3.09-.13,4.59-.38l.21,5.83-4.25,17.6,28.13,5.24,5.55-21"/>
          <path class="cls-38" d="M1081.55,535.45s12.15-8.16,9.14-14.6c-3-6.44-12.88-2.57-12.88-2.57,0,0-3.86-1.72-3-9.45,0,0-11.17,6.87-12.45-5.15,0,0-15.03,5.58-17.18-7.73-2.28-14.04,13.31-20.18,22.76-12.02,0,0,3.86-8.16,12.88-6.44,8.07,1.55,9.45,9.45,9.45,9.45,0,0,9.06-2.96,12.88,2.15,3.87,5.15.43,11.59.43,11.59,0,0,8.5,3.05,7.3,12.02-.47,3.78-2.49,7.21-5.58,9.45,0,0,7.73,4.72,2.14,12.02,0,0,3.44,8.16-5.15,12.03-8.46,3.82-16.88-3.43-20.74-10.74Z"/>
          <path class="cls-22" d="M1059.99,523.39l-.13-.13c-.48-.39-.6-1.03-.39-1.55l.26-.99"/>
          <path class="cls-22" d="M1062.65,526.78c-1.16,1.5-3.22,1.42-3.86.94"/>
          <path class="cls-35" d="M1065.7,520c.62,0,1.12-.5,1.12-1.12s-.5-1.12-1.12-1.12-1.12.5-1.12,1.12.5,1.12,1.12,1.12Z"/>
          <path class="cls-35" d="M1055.91,518.53c.61,0,1.12-.5,1.12-1.12s-.5-1.12-1.12-1.12-1.12.5-1.12,1.12.5,1.12,1.12,1.12Z"/>
          <path class="cls-22" d="M1067.08,540.9c1.89-.51,3.99-.81,5.71-1.37"/>
          <path class="cls-22" d="M1078.75,526.78l3.22-1.63"/>
          <path class="cls-34" d="M1067.08,540.9l.17,4.13s4.34-1.5,7.6-4.6c.3-.3.34-.81.04-1.12-.21-.21-.56-.3-.86-.21-2.28.78-4.59,1.37-6.95,1.8Z"/>
          <path class="cls-22" d="M1067.93,483.93c-1.71,2.57,0,6.74,0,6.74"/>
          <path class="cls-22" d="M1090.26,486.93c-4.94,2.58-5.37,5.11-5.37,5.11"/>
          <path class="cls-22" d="M1062.36,503.68c3.86-1.46,5.58-3.26,5.58-3.26"/>
          <path class="cls-22" d="M1074.81,508.83c.38-3.86,2.62-7.3,2.62-7.3"/>
          <path class="cls-29" d="M969.85,582.91c-1.5,0-2.93-.6-3.99-1.66-1.06-1.06-1.65-2.49-1.65-3.99v-8.43c0-1.5.6-2.93,1.65-3.99,1.06-1.06,2.49-1.65,3.99-1.65h41.7c1.5,0,2.93.6,3.99,1.65,1.06,1.06,1.65,2.49,1.66,3.99v8.43c-.01,1.5-.61,2.92-1.67,3.98-1.06,1.06-2.49,1.66-3.98,1.67h-41.7Z"/>
          <path class="cls-22" d="M982.91,582.9v-12.05"/>
          <path class="cls-22" d="M992.06,582.9v-12.05"/>
          <path class="cls-22" d="M996.63,582.9v-12.05"/>
          <path class="cls-22" d="M1001.2,582.9v-12.05"/>
          <path class="cls-22" d="M1005.75,582.9v-12.05"/>
          <path class="cls-22" d="M1011.62,582.9v-12.05"/>
          <path class="cls-47" d="M981.6,501.7c-4.61,0-9.02-1.84-12.27-5.09-3.26-3.26-5.09-7.67-5.09-12.27v-13.36c0-.69.13-1.37.38-2.01.26-.63.64-1.21,1.12-1.7.48-.49,1.05-.88,1.69-1.14.63-.27,1.31-.41,2-.41h24.28c1.4,0,2.73.56,3.72,1.54.98.98,1.54,2.32,1.55,3.72v13.36c0,4.6-1.84,9.02-5.1,12.27-3.25,3.26-7.67,5.09-12.27,5.09h0Z"/>
          <path class="cls-25" d="M981.56,492.09c-.83-2.08-2.07-3.96-3.65-5.55-1.58-1.58-3.47-2.82-5.54-3.65,2.08-.83,3.96-2.08,5.54-3.66,1.58-1.58,2.82-3.47,3.65-5.55.83,2.08,2.08,3.96,3.66,5.54,1.58,1.58,3.47,2.83,5.55,3.65-2.08.83-3.96,2.08-5.54,3.66-1.58,1.58-2.82,3.47-3.65,5.55v.02s-.01-.02-.01-.02Z"/>
          <path class="cls-39" d="M1040.25,582.91c-2.52,0-4.94-1.01-6.72-2.79-1.78-1.78-2.78-4.2-2.79-6.72v-7.7c2.02-2.87,4.31-5.54,6.85-7.97,9.26-8.77,28.34-9.12,28.53-9.12.31,2.03.86,4.02,1.62,5.92,2.05,4.96,4.84,6.25,6.82,6.45.95.1,1.9.15,2.86.15,14.56,0,19.32-12.39,19.36-12.52h.02c.56,0,12.87.19,22.39,6.81v17.97c0,2.52-1.01,4.94-2.8,6.72-1.79,1.78-4.21,2.78-6.73,2.78h-69.41Z"/>
          <path class="cls-40" d="M1078.87,566.84c-2.31,0-4.62-.21-6.89-.6-10.25-1.71-14.67-11.74-14.76-16.74,2.94-.52,5.92-.83,8.91-.91.02.08,1.65,7.33,8.44,8.54,1.54.28,3.11.42,4.68.43h0c11.92,0,17.49-8.88,17.54-8.97,3.16.1,6.3.52,9.37,1.26-2.04,4.21-5,7.92-8.67,10.83-5.2,4.09-11.46,6.16-18.61,6.16h0Z"/>
          <path class="cls-1" d="M1095.22,550.59l8.49,3.01"/>
          <path class="cls-1" d="M1091.58,553.83l6.57,6.3"/>
          <path class="cls-1" d="M1085.76,556.71l4.48,7.79"/>
          <path class="cls-1" d="M1079.62,557.63l.71,9.13"/>
          <path class="cls-1" d="M1073.7,557.08l-2.71,8.9"/>
          <path class="cls-1" d="M1069.67,554.83l-6.93,6.44"/>
          <path class="cls-1" d="M1066.88,551.34l-8.32,3.23"/>
        </g>
        <path class="cls-20" d="M962.87,520.35h43.12"/>
        <path class="cls-20" d="M962.87,531.07h20.29"/>
        <path class="cls-20" d="M962.87,547.15h31.7"/>
      </g>
      <rect class="cls-19" x="687.97" y="455.05" width="204.83" height="136.55"/>
      <path class="cls-49" d="M856.05,562.31v-.06c.51-10.07,1.73-34.52,1.86-43.63.2-20.09-10.39-32.92-28.42-34.33-1.79-.13-3.53-.2-5.19-.2-13.54,0-22.97,4.5-28.88,13.73-3.46,5.39-4.17,12.45-5.01,19.89-.38,3.4-.77,6.93-1.41,10.59l-.2.89c-1.41,7.9-2.88,15.98,1.61,22.52,3.66,5.33,10.91,6.48,16.43,6.48,2.31,0,4.62-.19,6.86-.57l.32,8.72-12.65,21.78,54.39,1.16,2.23-20.17"/>
      <path class="cls-38" d="M835.39,549.41s18.16-12.19,13.66-21.82c-4.49-9.62-19.25-3.85-19.25-3.85,0,0-5.77-2.57-4.49-14.12,0,0-16.69,10.27-18.61-7.7,0,0-22.46,8.34-25.67-11.55-3.4-20.98,19.89-30.15,34.01-17.96,0,0,5.77-12.19,19.25-9.63,12.06,2.31,14.12,14.12,14.12,14.12,0,0,13.54-4.43,19.25,3.21,5.78,7.69.64,17.32.64,17.32,0,0,12.71,4.56,10.91,17.96-.71,5.65-3.72,10.78-8.34,14.12,0,0,11.55,7.06,3.2,17.96,0,0,5.14,12.2-7.69,17.97-12.64,5.71-25.22-5.13-30.99-16.04Z"/>
      <path class="cls-22" d="M803.18,531.39l-.19-.2c-.71-.58-.9-1.54-.58-2.31l.38-1.47"/>
      <path class="cls-35" d="M811.71,526.32c.92,0,1.67-.74,1.67-1.67s-.74-1.67-1.67-1.67-1.67.75-1.67,1.67.74,1.67,1.67,1.67Z"/>
      <path class="cls-35" d="M797.09,524.13c.92,0,1.67-.74,1.67-1.67s-.75-1.67-1.67-1.67-1.67.74-1.67,1.67.74,1.67,1.67,1.67Z"/>
      <path class="cls-22" d="M813.77,557.56c2.82-.77,5.96-1.21,8.53-2.05"/>
      <path class="cls-22" d="M831.22,536.46l4.82-2.44"/>
      <path class="cls-34" d="M813.77,557.56l.25,6.17s6.49-2.25,11.36-6.87c.45-.45.51-1.21.06-1.67-.32-.32-.83-.45-1.28-.32-3.4,1.16-6.86,2.05-10.39,2.69Z"/>
      <path class="cls-22" d="M815.05,472.42c-2.56,3.85,0,10.07,0,10.07"/>
      <path class="cls-22" d="M848.41,476.91c-7.38,3.85-8.02,7.64-8.02,7.64"/>
      <path class="cls-22" d="M806.71,501.93c5.77-2.18,8.34-4.87,8.34-4.87"/>
      <path class="cls-22" d="M825.32,509.63c.57-5.77,3.91-10.9,3.91-10.9"/>
      <path class="cls-46" d="M760.87,589.29c3.02-4.29,51.18-20.2,51.46-20.2.47,3.04,1.28,6,2.41,8.85,3.06,7.42,7.23,9.34,10.19,9.64,1.42.15,2.84.23,4.27.23,21.76,0,28.87-18.52,28.94-18.71h.03c.84,0,18.08,2.2,32.31,12.09v8.1"/>
      <ellipse class="cls-22" cx="809.73" cy="541.9" rx="4.51" ry="2.87"/>
      <g>
        <path class="cls-52" d="M607.37,403.15h81.98c20.75,0,37.44,16.82,37.44,37.44v58.83c0,1.89-2.28,2.91-3.67,1.64l-26.44-23.02h-88.42c-20.5,0-37.7-16.07-38.21-36.43-.76-21.13,16.19-38.46,37.32-38.46ZM696.55,478.16c-.13,0,0,0,0,0h0Z"/>
        <path class="cls-25" d="M624.32,439.7c0-4.4-3.58-7.97-7.97-7.97s-7.97,3.57-7.97,7.97,3.57,7.97,7.97,7.97,7.97-3.57,7.97-7.97Z"/>
        <path class="cls-25" d="M656.2,439.7c0-4.4-3.57-7.97-7.97-7.97s-7.97,3.57-7.97,7.97,3.57,7.97,7.97,7.97,7.97-3.57,7.97-7.97Z"/>
        <path class="cls-25" d="M688.07,439.7c0-4.4-3.57-7.97-7.97-7.97s-7.97,3.57-7.97,7.97,3.57,7.97,7.97,7.97,7.97-3.57,7.97-7.97Z"/>
      </g>
      <g id="x9kxWz.tif">
        <path class="cls-52" d="M1120.06,661.56c-1.1.01-2.44.59-3.22,1.36-1.43,1.41-2.19,1.28-2.88-.53-.36-.95-.81-1.86-1.5-3.42-1.16,2.29-2.03,4.11-3.01,5.86-.31.54-.95.9-1.44,1.34-.29-.58-.77-1.14-.85-1.75-1.14-9.45-2.22-18.9-3.31-28.36-.09-.76-.2-1.53-.8-2.29-.22,3.32-.46,6.63-.65,9.95-.85,14.82-1.67,29.63-2.54,44.45-.04.74-.46,1.45-1.22,2.14-1.63-10.77-1.76-21.6-3.2-32.46-.94,1.96-1.91,3.91-2.82,5.89-.77,1.68-1.61,1.54-2.51.15-1.21-1.85-2.39-3.72-3.89-6.07-1.99,4.57-5.75,3.66-9.2,3.67-9.16.01-18.32,0-27.48.01-2.65,0-5.59-.79-7.12,3.49-1.28-2.32-2.12-3.84-3.2-5.79-1.04,2.06-1.89,3.88-2.88,5.63-.3.54-.96.88-1.45,1.32-.29-.58-.77-1.14-.85-1.75-1.13-9.37-2.21-18.74-3.3-28.12-.09-.75-.19-1.49-.82-2.23-.21,3.01-.44,6.02-.61,9.03-.85,14.82-1.68,29.63-2.52,44.45-.02.4.08.84-.07,1.18-.23.51-.63.94-.96,1.41-.33-.46-.91-.91-.95-1.4-.31-3.72-.52-7.44-.74-11.16-.39-6.56-.77-13.11-1.65-19.85-.9,1.86-1.77,3.73-2.72,5.56-.31.59-.82,1.08-1.24,1.61-.57-.48-1.27-.86-1.69-1.45-1.19-1.66-2.27-3.4-3.7-5.57-2.01,4.45-5.73,3.63-9.18,3.63-9.88,0-19.75.02-29.63-.02-1.59,0-2.94.13-3.93,1.62-.9,1.36-1.79,1.08-2.41-.34-.47-1.06-.93-2.13-1.63-3.73-1.18,2.26-2.07,4.08-3.08,5.83-.31.54-.97.88-1.47,1.31-.28-.6-.74-1.17-.81-1.79-1.13-9.45-2.2-18.91-3.29-28.37-.09-.75-.21-1.49-.8-2.22-.2,3.1-.43,6.2-.61,9.3-.85,14.9-1.69,29.79-2.53,44.69-.01.24.05.51-.05.71-.29.58-.64,1.13-.96,1.69-.35-.53-.96-1.04-1.01-1.6-.3-3.4-.49-6.81-.69-10.21-.37-6.42-.71-12.84-1.06-19.25-.02-.37-.13-.74-.69-1.27-.88,1.85-1.75,3.71-2.65,5.55-.99,2.04-1.6,2.08-2.85.21-1.02-1.52-2.01-3.05-3.02-4.57-.13-.2-.3-.37-.42-.51-.25.05-.47.03-.53.12-1.87,2.86-4.65,3.08-7.73,2.92-3.52-.18-7.05-.04-10.58-.04l-.05-.67c.54-.09,1.08-.25,1.62-.25,3.34-.02,6.7-.15,10.03.04,2.33.13,4.17-.39,5.56-2.32,1.11-1.55,2.1-1.33,3.06.25,1.01,1.68,2.14,3.28,3.46,5.29,1.56-3.11,2.93-5.85,4.3-8.6l1.01.17c1.11,9.62,1.12,19.34,2.37,28.98,1.1-18.51,2.2-37.03,3.31-55.54.39-.04.78-.07,1.17-.11.25.78.62,1.55.72,2.35,1.31,11.02,2.58,22.05,4.31,33.27.86-1.68,1.67-3.4,2.61-5.04.32-.55.96-.92,1.46-1.36.39.47.87.89,1.14,1.42.55,1.04.98,2.14,1.72,3.8,1.35-3.15,3.78-2.6,6.02-2.6,10.43,0,20.87-.05,31.3.04,2.05.02,3.6-.43,4.97-2.06,1.69-2.02,1.94-1.9,3.43.35,1,1.52,2,3.04,3.28,4.99,1.52-3.12,2.87-5.87,4.22-8.62.34.05.69.09,1.03.14,1.24,9.62,1.13,19.36,2.42,29.02,1.1-18.51,2.19-37.01,3.29-55.52.39-.06.78-.11,1.17-.17.26.81.66,1.61.76,2.44,1.3,10.94,2.56,21.89,3.91,33.61,1.52-2.7,2.7-4.82,4.27-7.62,1.18,2.17,2.07,3.82,3.13,5.78,1.13-2.63,3.24-2.4,5.34-2.39,10.75.04,21.5-.02,32.26.05,1.82.01,3.13-.42,4.35-1.82,2.03-2.33,2.13-2.24,3.87.42.94,1.44,1.91,2.86,3.09,4.61,1.51-3.08,2.84-5.79,4.17-8.5.29,0,.59,0,.88,0,.21.95.56,1.89.62,2.85.56,8.86,1.07,17.73,1.98,26.61,1.11-18.64,2.21-37.27,3.32-55.91.39-.04.77-.09,1.16-.13.26.77.66,1.53.75,2.32,1.19,10.08,2.33,20.17,3.49,30.26.11.98.26,1.96.49,3.6,1.47-2.78,2.63-4.97,4.17-7.89,1.21,2.29,2.05,3.89,3.13,5.93,1.36-3.01,3.87-2.39,6.17-2.39"/>
      </g>
    </g>
  </g>
  <g id="Layer_8" data-name="Layer 8">
    <g>
      <path class="cls-49" d="M743.37,773.58c-1.95.11-3.81-.61-5.25-1.95-1.13-1.44-1.74-3.19-2.63-2.77-4.67.51-10.94,1.84-17.22,1.64-5.66,0-11.32-.82-16.87-2.27-.52.31-3.19,1.55-7.51,3.61l-1.65-.61-7.4-52.38,1.95-.82c18.93-1.55,37.66-2.27,54.53-2.27,23.88,0,49.81,1.85,50.84,6.9.42,1.34.21,2.78-.61,3.91-2.06,2.58-8.65,3.81-25.01,4.53.61,1.55,3.19,9.57-2.88,13.99,1.24,1.65,1.75,3.61,1.65,5.56-.2,2.48-1.65,4.84-4.21,7.1,1.13,1.75,1.34,3.81.61,5.77-.93,2.68-4.01,6.48-13.18,9.26-1.74.52-3.39.82-5.14.82Z"/>
      <path class="cls-49" d="M564.42,1061.72l-2.47-5.45-.11-.21c1.03-9.57,2.68-19.24,4.64-29.02l4.42-13.17,80.47,1.54,4.12,11.73c-2.06,6.28-3.3,12.55-4.12,19.04l-23.15,45.69-63.8-30.15Z"/>
      <path class="cls-40" d="M559.29,1122.23v-.21c-.1-5.87-.21-11.52-.21-17.18l3.19-3.71,117.42,3.19.92.41c.21.11.42.21.52.42,2.58,5.04,4.22,12.35,4.22,16.87v.21h-126.06Z"/>
      <path class="cls-25" d="M559.08,1104.84v-.21c0-6.9.31-13.58.52-20.06.11-2.68.31-5.35.42-7.83.41-7.1,1.85-20.68,1.85-20.68h.2c32.83,1.44,54.44,19.03,59.07,23.15.21.1.41,0,.41-.21l-2.98-18.93c-.52-3.5.42-7.1,2.78-9.78,2.26-2.68,5.56-4.11,9.06-4.11h20.68c.11,0,.21.1.21.31-.1.61-.21,1.95-.21,2.26-.1,1.96-.31,3.71-.31,5.46.1,20.99,9.36,29.43,18.42,37.66,3.61,3.19,6.69,6.48,7.72,7.62.21.2.42.52.61.71l3.09,4.33c.1.2,0,.41-.21.41l-121.32-.1Z"/>
      <path class="cls-48" d="M566.49,1027.04c6.9-36.53,18.93-71.82,35.5-105.07l-40.03-32.42c-26.75,0-55.77,24.39-67.92,9.16-10.29-12.87-13.68-30.15-9.57-48.47,6.07-26.35,15.85-43.22,15.95-43.43l.11-.1,31.38,3.5c1.14.1,114.54,13.17,149.11,54.34,22.95,27.16,2.05,84.79-14.72,131.2-4.11,11.42-8.03,22.22-10.8,31.38l-89.01-.1Z"/>
      <path class="cls-34" d="M630.29,970.75c-18.42-14-43.01-14.51-43.22-14.51h-.31l.1-.41c4.53-11.63,9.57-23.06,15.13-34.06h-48.47c-26.75,0-47.33-8.03-59.48-23.25-10.29-12.86-13.68-30.15-9.57-48.47,6.07-26.35,15.85-43.22,15.95-43.43l.11-.1,31.38,3.5c1.14.1,114.54,13.17,149.11,54.34,22.95,27.17,2.05,84.79-14.72,131.2-1.54,4.32-3.08,8.54-4.53,12.55l-.2.52c.1,0-18.22-27.78-31.29-37.87Z"/>
      <path class="cls-15" d="M653.13,1069.95l-14,5.87"/>
      <path class="cls-15" d="M659.1,1081.38l-9.57,7.2"/>
      <path class="cls-12" d="M655.5,1027.14l-89.01-.1"/>
      <path class="cls-49" d="M702.01,1067.28l-.1-2.27c-.72-1.95-7.62-.1-8.44-2.26-3.09-8.33-7.1-20.17-9.26-27.99l2.68-10.19,67-39.21,10.9,10.29c2.06,10.6,3.51,16.98,4.53,19.56l-4.73,51.96-62.57.11Z"/>
      <path class="cls-25" d="M711.68,1105.66c-.2,0-.31-.11-.31-.31-3.5-7.52-9.78-21.82-10.6-24.19-2.57-6.28-6.69-16.98-7.1-18.32,0-.1,0-.21.1-.21l1.45-.61c12.75-5.87,25.31-8.23,39.41-8.23,7.93-.1,15.64.93,23.26,2.88.52.1.92-.41.61-.92l-9.26-13.28c-4.32-6.28-2.77-14.92,3.5-19.24.62-.42,1.24-.82,1.85-1.14l14.41-6.69c.31-.1.62,0,.82.21.21.31.31.72.42,1.03.52,1.24,1.13,2.47,1.74,3.6,9.47,18.73,21.61,22.12,33.34,25.42,5.67,1.65,11.02,3.08,15.85,6.27l.1.52-102.8,54.95-6.8-1.74Z"/>
      <path class="cls-15" d="M780.63,1033.11l-9.16,11.11"/>
      <path class="cls-15" d="M790.91,1040.72l-5.03,10.91"/>
      <path class="cls-49" d="M501.55,636.62c-2.98-14.71,3.5-32.93,2.16-40.96l-4.21-6.17c-2.48-12.86-2.37-30.15,11.52-42.81,8.85-7.82,8.95-4.84,22.12-4.84,6.9,0,9.67-2.37,16.15.11,8.13,3.08,18.83-1.55,22.75,4.84,4.21,6.69,7.1,15.33,10.49,25.62l.52,1.65c5.14.72,8.13,2.16,8.64,4.12.82,3.5-3.39,8.85-4.01,9.67,5.56,17.29,5.35,26.75-.61,34.89-3.71,5.04-11.12,8.13-19.96,8.13-3.29,0-6.48-.41-9.57-1.44l1.45,9.06-57.63-1.45.21-.41Z"/>
      <path class="cls-30" d="M546.01,627.97c-.31-.61-.31-1.34.11-1.95.52-.93,1.65-1.24,2.57-.72l8.96,4.01,1.13,7-8.96,4.01-3.81-12.35Z"/>
      <path class="cls-25" d="M470.37,833.89c-.52-.21-48.05-26.25-39.31-73.17,2.47-15.95,8.64-37.25,16.98-58.24,9.56-24.28,18.73-35.3,21.29-38.08,12.35-13.58,31.39-16.87,33.66-17.19-.11-.82-.52-3.29-.82-5.66-.32-2.05-.52-3.9-.72-4.74v-.51h59.99l1.85,11.22c39.93,6.27,50.73,27.57,68.74,62.87,2.16,4.22,4.32,8.54,6.69,13.07,14.81-2.16,32.62-4.11,47.85-5.45h.21l7.1,53.82-1.24.61c-12.04,5.66-30.15,14.2-55.77,15.13h-1.55c-23.98,0-44.46-20.79-47.02-23.46l-9.47,37.77-.1.61h-93.85c-.93,1.65-11.53,21.19-14.1,31.07l-.11.21-.31.11Z"/>
      <path class="cls-34" d="M470.37,833.99c-8.03-4.63-15.23-10.49-21.5-17.29l-.21-.21.21-.1c6.89-4.94,12.35-11.83,15.64-19.66,2.48-6.07,3.3-13.38,4.12-19.86,1.23-9.88,10.91-10.39,10.91-10.39l5.24,35.91.21.32c-.1.2-11.52,20.99-14.2,31.18l-.11.2-.31-.1Z"/>
      <path class="cls-43" d="M502.89,662.35c-9.36,0-17.7-3.6-22.95-9.88-4.53-5.35-6.38-12.55-5.04-19.45,2.88-16.57,19.56-23.35,21.41-24.08-1.24-6.9-2.37-13.89-2.99-17.7l-.1-.52c-2.47-12.87-7.1-36.85,6.79-49.4,8.86-7.82,21.51-12.35,34.68-12.35,6.9,0,13.79,1.24,20.28,3.71,7.1,2.58,13.17,7.51,17.18,13.99v.21c.07,15.92-19.66,11.28-18.46,13.5,9.55,15.4-3.45,28.71-3.92,29.29l-.43.56-.37.47c-1.42-1.15-13.24-10.69-23.22-10.69-4.43,0-7.51,1.96-9.26,5.87-8.03,18.11,17.5,31.6,16.91,31.65.35,1.55,6.66,34.63-17.01,42.45-4.43,1.55-8.96,2.37-13.48,2.37Z"/>
      <path class="cls-12" d="M588.3,764.12l-17.7-24.28"/>
      <path class="cls-12" d="M456.38,770.81l23.15-4.32"/>
      <path class="cls-12" d="M638.72,723.47l-4.22,17.7"/>
      <path class="cls-12" d="M686.78,718.02l7.1,53.82"/>
      <path class="cls-12" d="M563.29,647.53c-3.71-.21-9.78.2-9.78.2"/>
      <path class="cls-13" d="M531.6,598.13l7.2,5.15"/>
      <path class="cls-13" d="M572.95,599.9c3.67,1.73,6.75,1.66,8.34.04"/>
      <path class="cls-13" d="M557.64,629.31l-8.96-4.01"/>
      <path class="cls-45" d="M572.24,579.61c1.42,0,2.58-1.15,2.58-2.58s-1.15-2.57-2.58-2.57-2.57,1.15-2.57,2.57,1.15,2.58,2.57,2.58Z"/>
      <path class="cls-13" d="M766.22,730.88c-8.23-4.11-21.61-5.14-21.61-5.14"/>
      <path class="cls-13" d="M763.34,745.08c-6.38-2.87-20.79-4.94-20.79-4.94"/>
      <path class="cls-13" d="M760.76,757.74c-5.87-2.16-20.27-4.22-20.27-4.22"/>
      <path class="cls-15" d="M621.53,1079.01l5.35,25.83"/>
      <path class="cls-34" d="M562.78,743.74c-.82-2.26.41-4.84,2.77-5.55,1.85-.62,3.91,0,5.04,1.65,3.91,5.76,17.7,24.28,17.7,24.28l-7.93,31.49-17.6-51.87Z"/>
      <path class="cls-48" d="M684.21,1034.76c-14.2-53.61-15.23-79.44-15.12-112.58l-149.31.31c-15.95,0-29.54-6.17-39.51-17.8-8.86-10.39-14.1-24.49-14.72-39.62-.82-18.62,5.56-39.92,18.93-63.28l.21-.31,94.16.42c1.14.2,113.71,20.68,143.45,51.14,20.38,20.99,25.22,48.47,32,86.55,1.14,6.27,2.27,12.76,3.61,19.55l.92,4.74c2.16,11.52,5.97,31.8,5.97,31.8l-80.58,39.11Z"/>
      <path class="cls-40" d="M719.6,1121.61c-2.68-5.15-4.43-8.44-6.9-13.48l-1.23-2.58c0-.1,0-.2.1-.31l109.49-53.31.31.21c1.54,1.03,2.77,2.06,4.11,3.29l.21.21s5.35,6.28,7.1,9.99l.1.2-112.99,56.4-.31-.61Z"/>
      <path class="cls-12" d="M472.94,720.59l6.59,45.89,5.14,34.99,94.16.42"/>
      <path class="cls-12" d="M672.38,978.99c-2.98-20.79-3.29-37.35-3.29-56.8l-67.3.1"/>
      <path class="cls-12" d="M684.93,904.79l-15.84,17.4"/>
      <path class="cls-12" d="M764.78,995.65l-80.57,39.11"/>
      <path class="cls-15" d="M758.29,1055.75l13.79,20.06"/>
    </g>
    <path class="cls-25" d="M658.08,918.65l-138.31,3.84c-15.95,0-29.54-6.17-39.51-17.8-8.86-10.39-14.1-24.49-14.72-39.62-.82-18.62,5.56-39.92,18.93-63.28l.21-.31,94.16.42c114.97,20.38,143.45,51.14,143.45,51.14l-64.2,65.62Z"/>
    <g>
      <path class="cls-52" d="M525.51,835.04h-25.13v92.74h25.13v-92.74Z"/>
      <path class="cls-52" d="M541.98,956.39h-25.14v92.74h25.14v-92.74Z"/>
      <path class="cls-32" d="M541.98,986.73l-25.14-7.8v-22.54h25.14v30.34Z"/>
      <path class="cls-32" d="M525.51,865.37l-25.13-7.8v-22.53h25.13v30.33Z"/>
      <path class="cls-52" d="M513.29,1040.47h32.24c5.72,0,10.32,4.59,10.32,10.32v13.95h-52.87v-13.95c0-5.72,4.59-10.32,10.31-10.32Z"/>
      <path class="cls-52" d="M545.53,968.53h-32.24c-5.72,0-10.31-4.59-10.31-10.32v-19.5h52.87v19.5c0,5.72-4.59,10.32-10.32,10.32Z"/>
      <path class="cls-52" d="M469.17,759.63h87.54c23.93,0,43.34,19.42,43.34,43.34s-19.42,43.34-43.34,43.34h-87.54c-23.93,0-43.34-19.42-43.34-43.34s19.42-43.34,43.34-43.34Z"/>
      <path class="cls-52" d="M587.49,919.12h71.08c6.94,0,12.57,5.63,12.57,12.57s-5.63,12.56-12.57,12.56h-71.08c-6.94,0-23.84-5.63-23.84-12.56s16.9-12.57,23.84-12.57Z"/>
      <path class="cls-10" d="M455.74,1087.62v-13c0-5.47,4.42-9.89,9.88-9.89h127.51c5.46,0,9.88,4.42,9.88,9.89v13"/>
      <path class="cls-3" d="M529.41,1087.27v-32.24"/>
      <path class="cls-52" d="M529.41,1123.16c11.72,0,21.24-9.5,21.24-21.24s-9.51-21.24-21.24-21.24-21.24,9.5-21.24,21.24,9.5,21.24,21.24,21.24Z"/>
      <path class="cls-52" d="M455.74,1123.16c11.72,0,21.24-9.5,21.24-21.24s-9.51-21.24-21.24-21.24-21.24,9.5-21.24,21.24,9.5,21.24,21.24,21.24Z"/>
      <path class="cls-52" d="M455.74,1106.34c2.63,0,4.77-2.14,4.77-4.77s-2.14-4.76-4.77-4.76-4.77,2.13-4.77,4.76,2.14,4.77,4.77,4.77Z"/>
      <path class="cls-52" d="M529.41,1106.34c2.63,0,4.77-2.14,4.77-4.77s-2.14-4.76-4.77-4.76-4.77,2.13-4.77,4.76,2.14,4.77,4.77,4.77Z"/>
      <path class="cls-52" d="M603.09,1123.16c11.73,0,21.24-9.5,21.24-21.24s-9.5-21.24-21.24-21.24-21.24,9.5-21.24,21.24,9.5,21.24,21.24,21.24Z"/>
      <path class="cls-4" d="M500.38,846.3h25.13"/>
      <path class="cls-2" d="M477.84,802.97h70.21"/>
      <path class="cls-52" d="M603.09,1106.34c2.63,0,4.77-2.14,4.77-4.77s-2.14-4.76-4.77-4.76-4.77,2.13-4.77,4.76,2.14,4.77,4.77,4.77Z"/>
      <path class="cls-52" d="M438.4,919.12h149.09c6.94,0,12.57,5.63,12.57,12.57s-5.63,12.56-12.57,12.56h-149.09c-6.93,0-12.57-5.63-12.57-12.56s5.64-12.57,12.57-12.57Z"/>
      <path class="cls-4" d="M502.98,944.25h52.87"/>
      <path class="cls-4" d="M500.38,919.12h25.13"/>
    </g>
    <path class="cls-12" d="M626.88,812.11s91.19,19.09,105.23,53.26"/>
    <path class="cls-46" d="M1632.77,796.41h-47.49s54.65,36.61,26.91,45.61c-27.74,9,46.67,2.43,46.67,2.43,0,0,19.74-22.06-26.09-48.04Z"/>
  </g>
</svg>